<svg width="16" height="16" viewBox="0 0 16 16" fill="none" xmlns="http://www.w3.org/2000/svg">
<g id="heroicons-solid/arrow-path">
<path id="Vector (Stroke)" fill-rule="evenodd" clip-rule="evenodd" d="M3.16995 6.70544C3.88466 4.03811 6.62634 2.4552 9.29367 3.16991C10.1743 3.40588 10.9355 3.862 11.5354 4.46303L12.8042 5.73175H10.6817C10.4055 5.73175 10.1817 5.9556 10.1817 6.23175C10.1817 6.50789 10.4055 6.73175 10.6817 6.73175H14.0101C14.1427 6.73175 14.2699 6.67906 14.3637 6.58527C14.4574 6.49149 14.5101 6.3643 14.5101 6.23167V2.90334C14.5101 2.6272 14.2862 2.40334 14.0101 2.40334C13.7339 2.40334 13.5101 2.6272 13.5101 2.90334V5.02345L12.2432 3.75659C11.5224 3.03453 10.6074 2.48665 9.55249 2.20398C6.3517 1.34633 3.06168 3.24583 2.20403 6.44662C2.13255 6.71336 2.29084 6.98752 2.55758 7.05899C2.82431 7.13047 3.09848 6.97217 3.16995 6.70544ZM13.4416 8.94008C13.1748 8.86861 12.9007 9.0269 12.8292 9.29363C12.1145 11.961 9.37281 13.5439 6.70548 12.8292C5.82483 12.5932 5.06364 12.1371 4.46374 11.5361L3.19581 10.2673H5.31768C5.59383 10.2673 5.81768 10.0434 5.81768 9.7673C5.81768 9.49116 5.59383 9.2673 5.31768 9.2673L1.98926 9.2673C1.71312 9.2673 1.48926 9.49116 1.48926 9.7673V13.0957C1.48926 13.3719 1.71312 13.5957 1.98926 13.5957C2.2654 13.5957 2.48926 13.3719 2.48926 13.0957V10.975L3.75597 12.2425C4.47677 12.9646 5.39165 13.5124 6.44666 13.7951C9.64746 14.6527 12.9375 12.7532 13.7951 9.55245C13.8666 9.28572 13.7083 9.01155 13.4416 8.94008Z" fill="white" style="fill:white;fill-opacity:1;"/>
</g>
</svg>
