<svg width="10" height="10" viewBox="0 0 10 10" fill="none" xmlns="http://www.w3.org/2000/svg">
<path fill-rule="evenodd" clip-rule="evenodd" d="M4.99967 0.333984C5.36786 0.333984 5.66634 0.632461 5.66634 1.00065V4.33398L8.99967 4.33398C9.36786 4.33398 9.66634 4.63246 9.66634 5.00065C9.66634 5.36884 9.36786 5.66732 8.99967 5.66732L5.66634 5.66732L5.66634 9.00065C5.66634 9.36884 5.36786 9.66732 4.99967 9.66732C4.63148 9.66732 4.33301 9.36884 4.33301 9.00065V5.66732H0.999674C0.631485 5.66732 0.333008 5.36884 0.333008 5.00065C0.333008 4.63246 0.631485 4.33398 0.999674 4.33398H4.33301V1.00065C4.33301 0.632461 4.63148 0.333984 4.99967 0.333984Z" fill="white" style="fill:white;fill-opacity:1;"/>
</svg>
