<svg width="21" height="20" viewBox="0 0 21 20" fill="none" xmlns="http://www.w3.org/2000/svg">
<path fill-rule="evenodd" clip-rule="evenodd" d="M12.0363 20L12.0349 20H8.96543C7.75569 20 6.64794 19.1787 6.36808 17.9392L6.36689 17.9339L6.21753 17.263L5.4923 17.4871C4.33587 17.8449 3.04716 17.3854 2.40694 16.3111C2.40684 16.311 2.40703 16.3113 2.40694 16.3111C2.40658 16.3105 2.40593 16.3094 2.40557 16.3088L0.86279 13.7229C0.221577 12.6321 0.453155 11.26 1.3827 10.4309L1.38789 10.4263L1.86956 9.99992L1.38337 9.57056C0.452476 8.74103 0.220833 7.36735 0.863526 6.27594L0.867662 6.26892L2.4022 3.68955C2.40213 3.68966 2.40227 3.68943 2.4022 3.68955C3.0419 2.61409 4.33129 2.15339 5.48825 2.51103L6.21812 2.73655L6.3685 2.0635C6.64698 0.824112 7.75352 0.00123642 8.96357 9.75349e-07L12.0367 0C13.2463 0.00123598 14.3525 0.823497 14.6315 2.06211C14.6316 2.06258 14.6317 2.06304 14.6318 2.0635L14.7839 2.73781L15.5132 2.51258C16.6696 2.15585 17.9583 2.61601 18.5978 3.69069L20.1375 6.27876C20.7787 7.36955 20.5472 8.74159 19.6176 9.57075L19.6124 9.57539L19.1299 10.0025L19.6176 10.4341C20.5472 11.2633 20.7787 12.6353 20.1375 13.7261L20.1326 13.7344L18.5979 16.3141C17.9584 17.3888 16.6702 17.8492 15.5137 17.4925L14.7836 17.267L14.6314 17.9392C14.6313 17.9394 14.6314 17.939 14.6314 17.9392C14.6313 17.9394 14.6311 17.9403 14.6311 17.9404C14.351 19.178 13.2452 19.999 12.0363 20ZM12.8579 17.5387L13.2062 16.0014C13.4401 15.9016 13.6681 15.7894 13.8892 15.6651C14.0998 15.5463 14.3036 15.4166 14.4997 15.2765L16.0496 15.7551C16.4271 15.8715 16.8373 15.7173 17.0354 15.3845L18.5701 12.8047C18.7661 12.4713 18.6986 12.0508 18.4074 11.791L17.2057 10.7274C17.2604 10.2455 17.2604 9.75936 17.2057 9.27754L18.4074 8.21391C18.6986 7.95415 18.7661 7.53358 18.5701 7.20018L17.0354 4.62045C16.8373 4.28759 16.4271 4.13337 16.0496 4.24982L14.4997 4.72845C14.306 4.58966 14.1045 4.46154 13.8959 4.34473C13.6727 4.21797 13.4421 4.10379 13.2053 4.00273L12.8579 2.46209C12.7735 2.08652 12.4311 1.81859 12.0349 1.81818H8.96543C8.56925 1.81859 8.22679 2.08652 8.14241 2.46209L7.79836 4.00191C7.57408 4.09587 7.35509 4.2013 7.14231 4.31773C6.92064 4.44227 6.7064 4.57886 6.50059 4.72682L4.95153 4.24818C4.57375 4.13129 4.16307 4.28557 3.96492 4.61882L2.43019 7.19855C2.23375 7.53213 2.3013 7.95321 2.59294 8.21309L3.79458 9.27427C3.73993 9.75609 3.73993 10.2423 3.79458 10.7241L2.59294 11.7877C2.30173 12.0475 2.23421 12.4681 2.43019 12.8015L3.96829 15.3795C4.16644 15.7128 4.57712 15.8671 4.9549 15.7502L6.50396 15.2715C6.90638 15.5592 7.34052 15.8026 7.79836 15.9973L8.14157 17.5387C8.22636 17.9143 8.56919 18.1818 8.96543 18.1818H12.0349C12.4308 18.1815 12.7732 17.914 12.8579 17.5387ZM10.4968 8.54545C9.58586 8.54545 8.94188 9.24807 8.94188 10C8.94188 10.7519 9.58586 11.4545 10.4968 11.4545C11.4077 11.4545 12.0517 10.7519 12.0517 10C12.0517 9.24807 11.4077 8.54545 10.4968 8.54545ZM7.12375 10C7.12375 8.19252 8.63391 6.72727 10.4968 6.72727C12.3596 6.72727 13.8698 8.19252 13.8698 10C13.8698 11.8075 12.3596 13.2727 10.4968 13.2727C8.63391 13.2727 7.12375 11.8075 7.12375 10Z" fill="#808080" style="fill:#808080;fill:color(display-p3 0.5000 0.5000 0.5000);fill-opacity:1;"/>
</svg>
