<svg width="12" height="12" viewBox="0 0 12 12" fill="none" xmlns="http://www.w3.org/2000/svg">
<path d="M11.5676 2.52025C12.1441 1.94371 12.1441 1.00895 11.5676 0.432407C10.991 -0.144136 10.0563 -0.144136 9.47975 0.432407L6 3.91215L2.52025 0.432407C1.94371 -0.144136 1.00895 -0.144136 0.432407 0.432407C-0.144136 1.00895 -0.144136 1.94371 0.432407 2.52025L3.91215 6L0.432407 9.47975C-0.144136 10.0563 -0.144136 10.991 0.432407 11.5676C1.00895 12.1441 1.94371 12.1441 2.52025 11.5676L6 8.08785L9.47975 11.5676C10.0563 12.1441 10.991 12.1441 11.5676 11.5676C12.1441 10.991 12.1441 10.0563 11.5676 9.47975L8.08785 6L11.5676 2.52025Z" fill="#4D4D4D" style="fill:#4D4D4D;fill:color(display-p3 0.3020 0.3020 0.3020);fill-opacity:1;"/>
</svg>
