<svg width="44" height="44" viewBox="0 0 44 44" fill="none" xmlns="http://www.w3.org/2000/svg">
<circle cx="22" cy="22" r="22" fill="url(#paint0_linear_1_1920)" style=""/>
<path fill-rule="evenodd" clip-rule="evenodd" d="M26.8485 18.6821L28.4454 17.9719C28.5025 17.9465 28.5275 17.8813 28.501 17.8259L27.7079 16.1625C27.6816 16.1073 27.6141 16.0833 27.557 16.1087L26.7992 16.4457L26.2335 15.2594L26.9914 14.9224C27.0485 14.897 27.0734 14.8318 27.0471 14.7767L26.254 13.1133C26.2277 13.0581 26.1602 13.0341 26.1031 13.0595L25.345 13.3966L24.7792 12.2101L25.537 11.8731C25.5941 11.8477 25.6191 11.7825 25.5928 11.7273L24.7996 10.064C24.7733 10.0088 24.7058 9.98471 24.6487 10.0101L22.9264 10.7761C22.8693 10.8015 22.8444 10.8667 22.8707 10.9219L23.2196 11.6537L21.9914 12.2L21.6424 11.4681C21.6161 11.413 21.5486 11.3889 21.4915 11.4143L19.7692 12.1803C19.712 12.2057 19.6871 12.2708 19.7134 12.326L20.0624 13.0579L18.8338 13.6043L18.4848 12.8724C18.4585 12.8172 18.391 12.7932 18.3339 12.8186L16.6116 13.5845C16.5545 13.6099 16.5295 13.6751 16.5559 13.7303L17.349 15.3937C17.3753 15.4488 17.4428 15.4729 17.4999 15.4475L18.2577 15.1105L18.8235 16.297L18.0657 16.634C18.0085 16.6594 17.9836 16.7246 18.0099 16.7798L18.803 18.4431C18.8293 18.4983 18.8968 18.5224 18.954 18.497L19.7118 18.1599L19.9607 18.6821H15.3137L15.1176 17.1934C15.0196 15.8908 13.8431 14.9603 12.4706 14.9603H11.7843C11.3922 14.9603 11 15.3325 11 15.7047C11 16.0769 11.3922 16.449 11.7843 16.449H12.4706C13.1569 16.449 13.6471 16.8212 13.7451 17.3795L14.0392 19.5195L15.2157 27.2422C15.4118 28.4518 16.5882 29.3823 17.8627 29.3823H27.2745C28.647 29.3823 29.7255 28.5449 29.9215 27.2422L31 20.636C31 20.1708 30.902 19.6126 30.5098 19.2404C30.2157 18.8682 29.7255 18.6821 29.2353 18.6821H26.8485ZM26.5713 18.6821L26.2232 17.9521L24.9946 18.4985L25.0822 18.6821H26.5713ZM22.7441 18.6821L22.6215 18.425C22.5952 18.3698 22.6201 18.3046 22.6773 18.2792L23.4351 17.9422L22.8693 16.7556L22.1115 17.0927C22.0544 17.1181 21.9869 17.094 21.9606 17.0388L21.6116 16.307L20.383 16.8534L20.732 17.5852C20.7583 17.6404 20.7334 17.7056 20.6763 17.731L19.9184 18.068L20.2113 18.6821H22.7441ZM26.1278 17.7527L24.8995 18.2989L24.5504 17.5668C24.5241 17.5116 24.4566 17.4875 24.3994 17.5129L23.6416 17.85L23.076 16.6637L23.8338 16.3267C23.8909 16.3013 23.9159 16.2361 23.8896 16.1809L23.5406 15.4491L24.7692 14.9027L25.1181 15.6345C25.1444 15.6897 25.2119 15.7138 25.2691 15.6884L26.0266 15.3515L26.5923 16.538L25.8345 16.875C25.7774 16.9004 25.7525 16.9656 25.7788 17.0208L26.1278 17.7527ZM24.6737 14.7032L23.4454 15.2495L23.0964 14.5176C23.0701 14.4624 23.0026 14.4383 22.9455 14.4638L22.1877 14.8008L21.6219 13.6143L22.3798 13.2772C22.4369 13.2518 22.4618 13.1866 22.4355 13.1315L22.0865 12.3996L23.3151 11.8532L23.6641 12.5851C23.6904 12.6402 23.7579 12.6643 23.815 12.6389L24.5725 12.302L25.1383 13.4885L24.3805 13.8256C24.3234 13.851 24.2984 13.9162 24.3247 13.9713L24.6737 14.7032ZM21.5164 16.1074L20.2879 16.6538L19.9389 15.9219C19.9126 15.8667 19.8451 15.8426 19.788 15.868L19.0301 16.2051L18.4644 15.0185L19.2222 14.6815C19.2793 14.6561 19.3043 14.5909 19.278 14.5358L18.929 13.8039L20.1576 13.2575L20.5065 13.9894C20.5328 14.0445 20.6003 14.0686 20.6575 14.0432L21.4153 13.7062L21.981 14.8927L21.2232 15.2297C21.1661 15.2551 21.1412 15.3203 21.1675 15.3755L21.5164 16.1074Z" fill="white" style="fill:white;fill-opacity:1;"/>
<path d="M19.9509 31.6701C19.9509 32.4046 19.3344 33 18.5738 33C17.8133 33 17.1968 32.4046 17.1968 31.6701C17.1968 30.9355 17.8133 30.3401 18.5738 30.3401C19.3344 30.3401 19.9509 30.9355 19.9509 31.6701Z" fill="white" style="fill:white;fill-opacity:1;"/>
<path d="M26.2167 33C26.9772 33 27.5938 32.4046 27.5938 31.6701C27.5938 30.9355 26.9772 30.3401 26.2167 30.3401C25.4562 30.3401 24.8396 30.9355 24.8396 31.6701C24.8396 32.4046 25.4562 33 26.2167 33Z" fill="white" style="fill:white;fill-opacity:1;"/>
<defs>
<linearGradient id="paint0_linear_1_1920" x1="5.5" y1="3.64458" x2="44" y2="44" gradientUnits="userSpaceOnUse">
<stop stop-color="#00AEFF" style="stop-color:#00AEFF;stop-color:color(display-p3 0.0000 0.6806 1.0000);stop-opacity:1;"/>
<stop offset="0.72" stop-color="#DA007B" style="stop-color:#DA007B;stop-color:color(display-p3 0.8530 0.0000 0.4834);stop-opacity:1;"/>
</linearGradient>
</defs>
</svg>
