<svg width="14" height="12" viewBox="0 0 14 12" fill="none" xmlns="http://www.w3.org/2000/svg">
<path d="M0.469065 5.58716C1.87186 4.81448 3.43777 4.16956 4.90087 3.52136C7.41796 2.45966 9.94506 1.41636 12.4977 0.445062C12.9943 0.279572 13.8867 0.117752 13.9742 0.853722C13.9262 1.89552 13.7291 2.93122 13.594 3.96692C13.2508 6.24452 12.8542 8.51432 12.4675 10.7844C12.3342 11.5406 11.387 11.932 10.7809 11.4481C9.32425 10.4643 7.85645 9.48991 6.41845 8.48321C5.9474 8.00458 6.38422 7.31721 6.8049 6.97541C8.0046 5.79311 9.27691 4.78861 10.4139 3.54521C10.7206 2.8046 9.81439 3.42876 9.51548 3.62003C7.87308 4.75183 6.27088 5.95273 4.53929 6.94743C3.65479 7.43432 2.62388 7.01823 1.73978 6.74656C0.947095 6.41835 -0.214515 6.08768 0.468985 5.58726L0.469065 5.58716Z" fill="white" style="fill:white;fill-opacity:1;"/>
</svg>
