<svg width="12" height="10" viewBox="0 0 12 10" fill="none" xmlns="http://www.w3.org/2000/svg">
<path d="M3.8125 1.9375H10.8125M3.8125 5H10.8125M3.8125 8.0625H10.8125M1.1875 1.9375H1.19188V1.94188H1.1875V1.9375ZM1.40625 1.9375C1.40625 2.05831 1.30831 2.15625 1.1875 2.15625C1.06669 2.15625 0.96875 2.05831 0.96875 1.9375C0.96875 1.81669 1.06669 1.71875 1.1875 1.71875C1.30831 1.71875 1.40625 1.81669 1.40625 1.9375ZM1.1875 5H1.19188V5.00438H1.1875V5ZM1.40625 5C1.40625 5.12081 1.30831 5.21875 1.1875 5.21875C1.06669 5.21875 0.96875 5.12081 0.96875 5C0.96875 4.87919 1.06669 4.78125 1.1875 4.78125C1.30831 4.78125 1.40625 4.87919 1.40625 5ZM1.1875 8.0625H1.19188V8.06688H1.1875V8.0625ZM1.40625 8.0625C1.40625 8.18331 1.30831 8.28125 1.1875 8.28125C1.06669 8.28125 0.96875 8.18331 0.96875 8.0625C0.96875 7.94169 1.06669 7.84375 1.1875 7.84375C1.30831 7.84375 1.40625 7.94169 1.40625 8.0625Z" stroke="#808080" style="stroke:#808080;stroke:color(display-p3 0.5000 0.5000 0.5000);stroke-opacity:1;" stroke-width="1.5" stroke-linecap="round" stroke-linejoin="round"/>
</svg>
