<svg width="24" height="24" viewBox="0 0 24 24" fill="none" xmlns="http://www.w3.org/2000/svg">
<path d="M12.8998 5.6998C12.8998 5.20275 12.4969 4.7998 11.9998 4.7998C11.5027 4.7998 11.0998 5.20275 11.0998 5.6998V11.0998H5.6998C5.20275 11.0998 4.7998 11.5027 4.7998 11.9998C4.7998 12.4969 5.20275 12.8998 5.6998 12.8998L11.0998 12.8998V18.2998C11.0998 18.7969 11.5027 19.1998 11.9998 19.1998C12.4969 19.1998 12.8998 18.7969 12.8998 18.2998V12.8998H18.2998C18.7969 12.8998 19.1998 12.4969 19.1998 11.9998C19.1998 11.5027 18.7969 11.0998 18.2998 11.0998H12.8998V5.6998Z" fill="#808080" style="fill:#808080;fill:color(display-p3 0.5000 0.5000 0.5000);fill-opacity:1;"/>
</svg>
