<svg width="24" height="24" viewBox="0 0 24 24" fill="none" xmlns="http://www.w3.org/2000/svg">
<path d="M14.8574 17.0817C16.752 16.857 18.5789 16.4116 20.3117 15.7719C18.8749 14.177 18.0004 12.0656 18.0004 9.75V9.04919C18.0005 9.03281 18.0006 9.01641 18.0006 9C18.0006 5.68629 15.3143 3 12.0006 3C8.68685 3 6.00056 5.68629 6.00056 9L6.00036 9.75C6.00036 12.0656 5.12584 14.177 3.68904 15.7719C5.42197 16.4116 7.249 16.857 9.1437 17.0818M14.8574 17.0817C13.9205 17.1928 12.9671 17.25 12.0004 17.25C11.0337 17.25 10.0804 17.1929 9.1437 17.0818M14.8574 17.0817C14.9504 17.3711 15.0006 17.6797 15.0006 18C15.0006 19.6569 13.6574 21 12.0006 21C10.3437 21 9.00056 19.6569 9.00056 18C9.00056 17.6797 9.05075 17.3712 9.1437 17.0818M3.125 7.5C3.41228 5.78764 4.18309 4.23924 5.29224 3M18.7089 3C19.818 4.23924 20.5888 5.78764 20.8761 7.5" stroke="white" style="stroke:white;stroke-opacity:1;" stroke-width="1.5" stroke-linecap="round" stroke-linejoin="round"/>
</svg>
